<svg width="304" height="345" viewBox="0 0 304 345" fill="none" xmlns="http://www.w3.org/2000/svg">
<path d="M61.3844 75.7793L2 131V343.492H302V131" stroke="black" stroke-width="3" stroke-miterlimit="10" stroke-linecap="round" stroke-linejoin="round"/>
<path d="M225.959 60.268L171.644 9.69463C160.6 -0.564876 143.461 -0.564876 132.417 9.69463L78.1016 60.268" stroke="black" stroke-width="3" stroke-miterlimit="10" stroke-linecap="round" stroke-linejoin="round"/>
<path d="M292.223 121.947L242.615 75.7793" stroke="black" stroke-width="3" stroke-miterlimit="10" stroke-linecap="round" stroke-linejoin="round"/>
<path d="M135.917 102.27H125.054C124.692 102.27 124.33 102.571 124.33 102.994V103.235C124.33 112.891 124.33 122.487 124.33 132.143C124.33 132.988 124.27 133.833 124.149 134.738C123.847 137.393 122.459 138.902 119.985 139.385C119.502 139.445 119.08 139.506 118.597 139.506C118.174 139.506 117.752 139.505 117.329 139.445C115.036 139.385 113.226 138.117 112.682 135.884C112.32 134.557 112.26 133.169 112.139 131.841C112.079 130.996 112.079 130.091 112.139 129.246C112.139 128.824 111.838 128.522 111.415 128.522H100.492C100.13 128.522 99.7676 128.824 99.7676 129.246C99.7676 130.393 99.7676 131.479 99.7676 132.565C99.7676 135.341 100.13 137.997 101.095 140.592C102.725 144.937 105.682 148.015 109.967 149.825C112.682 150.972 115.459 151.515 118.235 151.515C120.588 151.515 122.882 151.153 125.235 150.369C129.52 148.98 132.719 146.204 134.71 142.101C136.159 138.962 136.641 135.703 136.641 132.324C136.641 122.607 136.641 112.891 136.641 103.175C136.641 103.114 136.641 103.114 136.641 103.054C136.581 102.571 136.279 102.27 135.917 102.27Z" stroke="black" stroke-width="3" stroke-miterlimit="10" stroke-linecap="round" stroke-linejoin="round"/>
<path d="M207.43 102.211H196.869C196.507 102.211 196.205 102.513 196.205 102.935V103.237C196.205 111.505 196.205 119.773 196.205 128.041C196.205 129.187 196.145 130.394 195.964 131.541C195.481 134.8 193.972 137.395 190.834 138.662C189.506 139.206 188.179 139.387 186.79 139.387C186.308 139.387 185.765 139.387 185.221 139.326C181.842 139.024 179.247 137.395 177.919 134.015C177.195 132.145 177.014 130.093 177.014 128.101C177.014 119.773 177.014 111.444 177.014 103.116V102.935C177.014 102.573 176.712 102.211 176.35 102.211H165.728C165.366 102.211 165.064 102.513 165.064 102.935C165.064 111.626 165.064 120.376 165.064 129.067C165.064 130.938 165.246 132.808 165.547 134.619C166.271 138.783 168.022 142.464 170.979 145.482C174.238 148.741 178.16 150.431 182.626 151.034C184.014 151.215 185.402 151.336 186.73 151.336C189.687 151.336 192.524 150.853 195.36 149.827C199.645 148.198 202.964 145.361 205.197 141.318C207.249 137.576 208.094 133.472 208.094 129.248C208.094 120.497 208.094 111.746 208.094 102.995C208.094 102.995 208.094 102.995 208.094 102.935C208.094 102.573 207.792 102.211 207.43 102.211Z" stroke="black" stroke-width="3" stroke-miterlimit="10" stroke-linecap="round" stroke-linejoin="round"/>
<path d="M117.088 224.058C117.752 224.118 118.416 224.118 119.08 224.118C121.856 224.118 124.511 223.756 126.865 223.092C129.279 222.368 131.391 221.342 133.202 220.014C137.004 217.178 138.995 213.074 138.995 208.186C138.995 203.418 137.245 199.858 133.745 197.323C130.728 195.15 126.805 193.943 121.856 192.797L121.735 192.736C114.795 191.167 111.295 190.383 111.295 187.365C111.295 184.891 113.95 183.201 117.873 183.201C119.925 183.201 121.615 183.623 122.882 184.529C124.149 185.434 124.934 186.701 125.175 188.27C125.236 188.632 125.537 188.934 125.96 188.934H136.642C136.883 188.934 137.064 188.874 137.245 188.693C137.366 188.512 137.487 188.331 137.426 188.089C137.245 185.675 136.642 183.503 135.556 181.632C134.53 179.821 133.142 178.313 131.391 177.106C128.072 174.812 123.546 173.545 118.235 173.545C112.622 173.545 107.855 174.752 104.536 177.106C102.725 178.373 101.337 179.942 100.432 181.813C99.4662 183.744 98.923 186.037 98.923 188.572C98.923 193.219 100.734 196.659 104.475 199.133C107.734 201.306 112.079 202.453 116.183 203.418L116.907 203.599C123.003 205.108 126.382 205.893 126.382 209.332C126.382 212.772 122.58 214.04 119.02 214.04C116.244 214.04 114.192 213.557 112.743 212.591C111.234 211.565 110.39 210.057 110.027 207.884C109.967 207.462 109.665 207.22 109.243 207.22H98.6816" stroke="black" stroke-width="3" stroke-miterlimit="10" stroke-linecap="round" stroke-linejoin="round"/>
<path d="M192.825 218.869V186.763C192.825 186.34 193.127 186.038 193.549 186.038H207.369C207.732 186.038 208.094 185.737 208.094 185.314V174.572C208.094 174.21 207.792 173.848 207.369 173.848H165.668C165.305 173.848 164.943 174.149 164.943 174.572V185.375C164.943 185.737 165.245 186.099 165.668 186.099H179.548C179.91 186.099 180.272 186.4 180.272 186.823V223.395C180.272 223.757 180.574 224.119 180.996 224.119H187.213" stroke="black" stroke-width="3" stroke-miterlimit="10" stroke-linecap="round" stroke-linejoin="round"/>
<path d="M242.616 172.519V61.4746C242.616 60.8107 242.073 60.2676 241.409 60.2676H62.5918C61.9279 60.2676 61.3848 60.8107 61.3848 61.4746V172.519" stroke="black" stroke-width="3" stroke-miterlimit="10" stroke-linecap="round" stroke-linejoin="round"/>
<path d="M73.9375 184.289V72.8828H230.003V184.289" stroke="black" stroke-width="3" stroke-miterlimit="10" stroke-linecap="round" stroke-linejoin="round"/>
<path d="M98.4393 207.039L139.176 244.939C142.736 248.258 147.383 249.948 151.97 249.948C156.556 249.948 161.203 248.258 164.764 244.939L281.481 136.369C285.162 132.929 290.051 130.998 295.12 130.998H301.94V343.43H2V130.998H8.81955C13.889 130.998 18.7773 132.929 22.4587 136.369L98.4393 207.039Z" stroke="black" stroke-width="3" stroke-miterlimit="10" stroke-linecap="round" stroke-linejoin="round"/>
</svg>
